<?xml version="1.0" standalone="no"?>
<!DOCTYPE svg PUBLIC "-//W3C//DTD SVG 20010904//EN"
 "http://www.w3.org/TR/2001/REC-SVG-20010904/DTD/svg10.dtd">
<svg version="1.0" xmlns="http://www.w3.org/2000/svg"
 width="512.000000pt" height="512.000000pt" viewBox="0 0 512.000000 512.000000"
 preserveAspectRatio="xMidYMid meet">
<metadata>
Created by potrace 1.16, written by Peter Selinger 2001-2019
</metadata>
<g transform="translate(0.000000,512.000000) scale(0.100000,-0.100000)"
fill="black" stroke="none">
<path d="M2545 4990 c-110 -17 -226 -60 -311 -116 -28 -19 -61 -34 -72 -34
-56 0 -171 -57 -263 -131 -19 -15 -50 -24 -107 -30 -99 -11 -180 -40 -213 -76
-13 -14 -17 -23 -9 -18 28 15 0 -8 -34 -29 -36 -22 -187 -164 -212 -200 -29
-42 -11 -174 38 -270 l20 -39 -21 -71 c-21 -70 -48 -282 -57 -446 -5 -90 -7
-83 50 -165 16 -22 17 -30 7 -47 -6 -10 -9 -29 -5 -40 6 -19 3 -20 -26 -14
-28 5 -31 4 -20 -9 15 -18 7 -19 -23 -4 -17 8 -15 4 7 -16 26 -24 36 -27 83
-23 47 4 53 3 53 -15 0 -23 -60 -178 -101 -259 -16 -32 -29 -68 -29 -81 0 -33
45 -72 113 -97 l59 -22 -5 -37 c-3 -20 -9 -49 -12 -64 -6 -23 -2 -34 21 -58
24 -25 29 -39 29 -81 0 -51 5 -59 48 -72 13 -4 17 -17 17 -57 0 -74 18 -126
57 -159 71 -63 139 -60 328 15 131 52 189 58 236 24 89 -63 149 -286 119 -443
l-12 -65 -57 -21 c-158 -60 -278 -158 -332 -273 -32 -70 -83 -262 -94 -355 -7
-55 -9 -59 -86 -133 -43 -42 -146 -123 -229 -179 -172 -117 -232 -178 -290
-295 -46 -91 -61 -157 -59 -259 l2 -71 9 75 c27 216 123 355 351 507 72 49
162 116 200 151 38 35 70 62 72 60 5 -5 -29 -272 -79 -621 -25 -175 -46 -320
-46 -323 0 -3 8 -4 17 -2 20 4 40 116 123 693 28 193 60 390 70 439 39 176
115 288 238 348 56 28 76 32 136 32 158 -2 389 -128 518 -282 91 -109 158
-304 158 -460 0 -95 -12 -129 -68 -201 -47 -59 -52 -79 -87 -336 -32 -237 -32
-237 0 -233 22 3 29 14 54 84 29 84 74 172 137 265 l36 54 -68 -65 c-37 -36
-69 -60 -71 -55 -5 15 31 149 67 250 32 87 32 93 27 215 -6 151 -30 250 -92
375 -66 136 -138 212 -299 319 -225 149 -447 137 -597 -33 l-41 -46 16 39 c24
58 83 133 140 178 67 53 145 92 274 135 240 81 425 49 580 -101 101 -96 189
-239 244 -391 33 -94 28 -44 -8 65 -56 175 -207 373 -347 454 -100 59 -246 70
-403 30 -36 -9 -67 -14 -69 -12 -2 1 1 26 6 53 14 66 4 174 -26 293 -14 53
-25 116 -25 140 0 74 37 160 129 298 87 130 107 177 151 352 11 42 29 57 31
25 0 -14 2 -13 9 5 11 26 23 28 40 7 18 -22 4 -48 -21 -42 -19 5 -20 4 -5 -12
12 -14 16 -42 17 -127 l2 -109 11 75 c9 62 14 75 28 72 12 -2 19 6 24 32 3 20
10 36 14 36 4 0 13 -53 19 -119 l12 -119 -35 -64 c-72 -131 -97 -245 -76 -358
22 -124 108 -240 231 -312 70 -41 233 -180 359 -307 73 -74 89 -87 70 -56 -53
90 -98 141 -207 236 -62 56 -131 124 -153 153 -86 114 -123 250 -101 372 15
87 31 116 31 59 0 -62 37 -181 83 -269 38 -74 74 -122 202 -276 94 -112 162
-253 205 -425 19 -72 23 -116 23 -220 -1 -115 -5 -146 -37 -275 -20 -79 -39
-170 -43 -201 -7 -74 10 -170 54 -299 43 -126 42 -184 -6 -299 -17 -41 -29
-76 -27 -78 6 -6 70 130 86 182 17 56 25 61 40 26 6 -16 28 -46 47 -66 36 -37
111 -81 121 -71 3 4 -10 23 -29 43 -19 21 -24 29 -11 19 20 -17 19 -12 -10 44
-38 72 -49 174 -28 250 l13 45 18 -69 c31 -121 114 -262 171 -292 34 -18 121
-21 158 -6 24 10 23 11 -12 11 -75 2 -113 39 -87 87 7 14 49 43 101 70 109 56
151 91 173 146 23 57 13 114 -31 179 -19 29 -31 55 -27 59 4 3 40 29 78 58
225 164 273 299 169 475 -19 32 -34 68 -35 80 0 20 -1 20 -8 4 -5 -15 -11 -9
-31 32 -30 66 -38 59 -9 -8 27 -65 18 -92 -58 -161 -52 -48 -73 -60 -73 -42 0
26 67 215 91 259 33 57 69 155 69 187 0 12 21 55 45 96 78 128 115 288 95 402
-15 83 -37 130 -115 249 -83 127 -115 191 -115 229 0 43 13 37 39 -17 12 -27
65 -111 116 -188 101 -151 128 -208 145 -308 23 -130 -18 -245 -129 -361 -54
-56 -60 -66 -32 -50 46 26 134 124 160 177 81 167 35 352 -159 642 -53 79
-100 167 -100 188 0 8 16 35 36 61 108 141 137 320 73 454 -12 26 -53 77 -90
114 l-67 66 -11 87 c-14 100 -41 179 -86 250 -17 28 -34 67 -38 88 -9 59 -48
126 -99 172 -46 42 -47 43 -28 60 41 37 31 123 -19 169 -14 13 -13 6 6 -33 18
-36 23 -58 18 -79 -9 -41 -38 -66 -68 -58 -23 5 -25 11 -29 98 -4 67 -11 104
-26 134 -21 41 -59 74 -85 74 -8 0 -21 25 -31 58 -69 224 -281 455 -531 579
-169 85 -375 119 -550 93z m251 -51 c312 -43 595 -244 732 -518 46 -92 47 -96
48 -194 2 -94 3 -101 24 -109 15 -5 20 -13 16 -24 -3 -9 -6 -19 -6 -23 0 -5
-32 -11 -71 -15 -140 -13 -320 -109 -510 -272 -173 -149 -272 -189 -474 -189
-135 0 -198 14 -310 67 l-40 19 30 -26 c44 -37 125 -74 218 -97 105 -26 229
-21 382 17 145 36 250 89 360 181 108 91 148 116 256 155 46 17 99 39 117 49
55 33 26 -3 -110 -136 -133 -130 -215 -191 -318 -237 -50 -22 -57 -27 -30 -23
82 14 178 74 298 190 64 61 134 125 155 141 61 46 80 93 85 218 5 120 13 129
50 57 42 -84 19 -253 -52 -374 -30 -51 -96 -89 -147 -84 l-32 3 74 79 73 79
-51 -26 c-31 -16 -86 -62 -142 -120 -140 -143 -254 -200 -476 -234 -233 -35
-534 17 -780 137 -194 94 -256 159 -403 416 -42 75 -90 150 -105 167 l-29 32
20 -30 c11 -16 34 -59 52 -95 50 -101 124 -219 179 -288 28 -34 51 -66 51 -70
0 -12 80 -86 130 -119 122 -82 341 -163 500 -186 110 -15 114 -20 80 -98 -19
-46 -20 -69 -1 -69 17 0 111 84 111 98 0 9 -8 24 -17 35 -17 18 -16 18 17 15
34 -3 35 -4 34 -48 l-1 -45 14 34 c8 18 12 40 9 47 -4 11 5 14 36 14 40 0 40
0 34 -32 -12 -62 -56 -133 -128 -207 -39 -41 -67 -68 -63 -60 8 12 6 12 -9 0
-20 -16 -32 -7 -39 29 -3 14 -5 4 -4 -22 0 -26 -1 -49 -4 -51 -2 -2 -15 -8
-29 -14 -24 -10 -27 -20 -42 -121 -20 -129 -44 -203 -87 -266 -62 -90 -445
-377 -599 -449 -166 -78 -264 -31 -267 127 l-1 71 74 76 c74 77 86 107 36 95
-14 -4 -55 4 -100 19 -56 19 -80 23 -94 15 -32 -17 -38 -12 -32 35 6 54 -6 70
-68 97 -53 23 -90 55 -90 78 0 10 17 55 39 101 63 139 84 212 79 284 -3 55 -9
69 -45 116 -68 89 -76 113 -70 193 26 332 61 474 145 584 17 23 32 32 53 32
31 0 35 -5 150 -194 30 -48 74 -109 99 -134 48 -48 156 -132 171 -132 5 0 -35
44 -89 98 -81 80 -108 115 -152 197 -154 287 -216 355 -314 342 -37 -5 -39 -4
-22 9 80 58 317 -61 496 -250 239 -251 298 -298 429 -343 160 -55 319 -10 491
137 35 30 35 30 -34 -7 -144 -75 -342 -96 -477 -50 -129 44 -180 85 -362 290
-37 42 -97 97 -132 122 -82 59 -222 124 -296 138 -33 7 -59 15 -59 18 0 17
116 110 171 138 53 26 74 31 136 31 86 0 190 -31 293 -87 53 -29 60 -30 35
-10 -16 14 -69 46 -116 71 -111 59 -202 75 -299 53 -57 -13 -62 -14 -45 -1 39
29 125 47 201 42 111 -7 174 -43 324 -184 114 -106 201 -178 240 -198 8 -4 2
3 -15 15 -40 29 -147 139 -176 180 -15 22 14 1 86 -59 143 -121 233 -181 325
-219 73 -30 137 -49 153 -45 4 1 7 -2 7 -7 0 -9 52 -27 140 -48 l35 -9 -71
-26 c-192 -71 -344 -59 -554 47 -122 61 -194 119 -293 231 -140 160 -195 194
-312 193 -67 -1 -68 -2 -25 -9 25 -5 58 -13 74 -20 58 -22 156 -101 243 -196
203 -221 426 -340 659 -351 149 -8 218 16 408 138 97 62 120 71 109 42 -5 -13
-3 -15 13 -9 140 54 278 71 349 42 34 -13 37 -14 20 -1 -37 29 -119 47 -231
52 -93 5 -130 1 -220 -18 -84 -18 -139 -23 -239 -23 -116 0 -139 3 -210 28
-133 45 -233 113 -405 272 -103 94 -207 167 -279 194 -43 17 -44 18 -21 30 31
17 98 7 157 -24 27 -13 116 -86 198 -161 251 -230 328 -270 520 -270 98 1 123
5 230 38 66 20 164 44 219 52 54 8 101 16 103 19 6 6 -117 26 -160 26 -20 0
-84 -9 -144 -21 -153 -29 -201 -18 -361 84 -79 51 -253 146 -237 130 27 -28
229 -182 295 -226 l75 -50 -78 7 c-147 13 -235 62 -407 224 l-105 99 60 18
c127 36 315 36 483 -1 81 -17 100 -14 53 10 -84 44 -316 70 -496 56 -160 -13
-158 -13 -94 20 119 61 259 90 438 90 204 0 391 -77 554 -229 51 -48 70 -59
107 -64 25 -3 55 -9 65 -13 38 -15 -59 89 -139 148 -92 69 -252 149 -346 173
-39 10 -122 19 -210 22 -179 6 -282 -10 -465 -72 -71 -24 -132 -41 -135 -38
-10 10 73 72 148 111 166 86 344 117 528 91z m-711 -179 c-22 -23 -37 -30 -67
-30 -26 0 -37 4 -32 11 9 15 84 49 108 49 17 0 16 -4 -9 -30z m894 -648 c-41
-9 -72 -10 -128 -2 -41 6 -76 11 -77 13 -1 1 56 2 128 2 127 0 130 0 77 -13z
m853 -229 c43 -26 85 -79 97 -121 l9 -30 -62 43 c-34 24 -80 51 -104 60 -42
17 -48 28 -36 72 5 19 9 20 32 10 15 -6 44 -21 64 -34z m-33 -105 c72 -35 166
-131 206 -212 64 -129 79 -292 38 -412 -20 -58 -28 -45 -15 25 20 112 -24 227
-128 331 -70 70 -145 115 -254 150 -58 19 -66 24 -50 33 10 5 29 18 40 29 22
19 22 19 63 -2 50 -25 91 -41 91 -35 0 2 -27 18 -60 36 l-60 32 21 29 c23 32
31 32 108 -4z m-655 -9 c-26 -29 -142 -104 -189 -123 -22 -8 -32 -10 -22 -3
171 112 223 145 226 146 2 1 -4 -8 -15 -20z m451 -122 c73 -25 74 -26 100 -98
25 -73 69 -132 158 -211 l82 -73 -55 62 c-82 94 -118 150 -136 210 -9 30 -14
56 -12 59 3 2 32 -14 66 -35 114 -74 182 -192 182 -317 l0 -64 -151 132 c-83
73 -188 165 -233 203 -74 65 -126 125 -126 146 0 16 55 9 125 -14z m-138 -122
c8 -27 18 -91 20 -141 9 -154 -41 -297 -149 -429 l-41 -50 57 55 c107 103 157
212 181 397 8 58 16 107 18 110 12 11 31 -79 30 -142 -1 -187 -136 -368 -380
-513 -282 -167 -434 -343 -440 -511 -2 -65 -2 -65 7 -18 21 119 101 231 233
330 70 52 177 120 177 113 0 -2 -16 -37 -35 -79 -92 -199 -96 -433 -11 -645
l34 -84 -29 28 c-33 32 -90 138 -112 209 -36 118 -28 262 22 391 l28 71 -46
-41 c-159 -142 -222 -227 -248 -332 -24 -98 -1 -201 62 -279 31 -37 44 -26 16
14 -45 63 -64 171 -41 241 7 22 8 20 9 -15 2 -67 29 -177 59 -237 15 -31 23
-54 17 -50 -5 3 -16 7 -23 8 -51 8 -151 139 -178 232 -25 84 -15 207 23 297
61 147 175 279 333 389 111 78 246 215 287 291 61 117 78 236 51 365 -10 50
-9 59 7 84 18 27 19 27 32 10 8 -10 21 -41 30 -69z m-117 -80 c23 -120 -5
-232 -90 -358 -48 -71 -100 -129 -100 -111 0 5 4 24 10 43 21 74 42 278 38
361 l-5 85 28 -60 c25 -51 29 -56 29 -31 0 37 21 107 30 101 4 -2 12 7 19 21
16 36 27 23 41 -51z m-195 -81 c40 -154 -5 -412 -81 -468 l-26 -19 7 24 c5 20
3 18 -13 -7 -11 -17 -54 -59 -95 -93 -42 -35 -83 -74 -92 -87 -29 -45 -38 -30
-32 54 11 137 65 296 150 437 l42 70 3 -48 c6 -89 -25 -161 -125 -292 -35 -46
-31 -44 54 34 55 50 100 100 112 125 22 44 41 145 41 213 0 23 5 65 11 94 13
60 20 54 44 -37z m638 -57 c108 -108 191 -219 234 -314 30 -64 39 -160 26
-257 l-8 -59 -76 114 c-82 123 -101 156 -149 263 -21 49 -25 65 -13 55 14 -12
14 -11 -1 14 -17 25 -35 40 -20 15 4 -7 3 -8 -5 -4 -6 4 -9 11 -6 16 3 5 -18
44 -46 87 -59 89 -79 131 -79 168 0 23 2 24 21 15 11 -6 66 -57 122 -113z
m413 -134 c23 -45 26 -63 22 -125 -3 -63 -9 -82 -43 -140 -42 -72 -55 -83 -55
-45 0 26 -30 120 -52 162 -13 25 -13 33 8 84 13 31 26 76 30 101 4 25 9 49 11
53 9 15 53 -35 79 -90z m-437 -60 c25 -45 41 -85 41 -106 0 -59 21 -150 46
-199 14 -27 57 -85 98 -131 40 -45 81 -97 90 -115 9 -18 21 -30 26 -27 6 4 7
-1 3 -11 -4 -12 -3 -15 5 -10 7 4 13 4 13 -1 7 -52 7 -76 -1 -122 -15 -81
-103 -291 -167 -400 l-58 -96 -6 95 c-8 125 -84 421 -150 586 -27 70 -56 154
-64 188 -18 77 -19 196 -1 262 18 70 68 177 77 167 4 -4 26 -40 48 -80z
m-1052 -9 c5 -14 -11 -34 -27 -34 -3 0 -11 4 -19 9 -19 12 -6 41 19 41 11 0
23 -7 27 -16z m1588 -155 c0 -90 -2 -99 -37 -170 -21 -40 -53 -92 -72 -114
l-34 -40 -7 48 c-11 70 0 142 30 193 14 24 37 64 51 89 15 26 28 68 31 102 l6
58 16 -35 c11 -24 16 -65 16 -131z m-728 65 c-6 -56 -6 -155 1 -278 11 -197
20 -240 72 -346 l22 -46 -57 -138 c-31 -76 -65 -172 -76 -214 -22 -87 -24
-226 -4 -287 l13 -40 1 63 c1 79 24 191 57 279 32 86 104 214 118 210 22 -7
78 -159 84 -223 7 -92 -3 -124 -59 -194 -85 -106 -103 -151 -104 -250 0 -126
7 -135 54 -64 21 33 84 102 141 154 57 52 116 113 132 134 32 44 35 42 13 -12
-32 -74 -78 -132 -153 -190 -77 -60 -136 -117 -164 -160 l-15 -22 -41 53 c-50
65 -114 199 -137 287 -13 50 -16 92 -12 180 5 137 35 247 103 389 24 52 43 95
41 98 -10 9 -119 -222 -142 -302 -37 -124 -43 -262 -17 -367 11 -43 18 -78 16
-78 -2 0 -22 36 -44 80 -87 173 -91 301 -17 520 55 164 67 217 72 340 4 91 4
93 -7 40 l-11 -55 -9 45 c-12 61 -4 184 17 245 14 41 112 235 119 235 1 0 -2
-39 -7 -86z m-887 23 c0 -17 -32 -34 -56 -29 -33 6 -30 36 4 48 27 11 52 2 52
-19z m80 8 c9 -11 10 -18 1 -29 -9 -10 -8 -15 4 -20 22 -8 18 -36 -5 -36 -13
0 -20 7 -20 19 0 10 -7 24 -15 31 -22 18 -19 50 4 50 10 0 24 -7 31 -15z m-59
-45 c25 -14 24 -37 -3 -46 -27 -8 -54 22 -37 43 14 16 15 16 40 3z m-74 -16
c8 -21 -13 -42 -28 -27 -13 13 -5 43 11 43 6 0 13 -7 17 -16z m141 -57 c4 -21
-25 -34 -40 -19 -8 8 -8 16 2 27 16 19 34 15 38 -8z m-38 -35 c0 -19 -24 -31
-42 -21 -15 8 -16 14 -8 30 9 15 15 17 30 9 11 -6 20 -14 20 -18z m674 -49
c-7 -38 -17 -93 -22 -123 l-9 -55 -3 65 c-2 36 -4 54 -7 40 -2 -14 -13 -90
-24 -170 -36 -260 -47 -306 -105 -432 -29 -65 -57 -130 -60 -143 -3 -14 -10
-25 -14 -25 -4 0 -18 35 -31 78 -21 66 -24 96 -23 212 1 116 4 146 26 212 38
114 87 194 190 306 50 56 92 102 93 102 1 0 -4 -30 -11 -67z m222 -267 c25
-78 60 -156 69 -156 3 0 -4 23 -16 51 -11 29 -18 53 -16 56 3 2 18 -29 35 -69
29 -71 58 -185 49 -194 -2 -2 -21 21 -41 52 -21 31 -32 53 -25 48 7 -4 4 6 -8
22 -28 41 -62 136 -79 222 -16 84 -18 155 -3 87 5 -22 21 -76 35 -119z m506
21 c-9 -19 -11 -13 -10 33 0 53 1 54 10 22 8 -23 8 -39 0 -55z m-2525 -73
c-27 -25 -42 -33 -49 -26 -17 17 -1 41 34 51 53 15 55 12 15 -25z m1768 -141
c-20 -70 -68 -170 -100 -209 -19 -23 -15 -9 18 67 24 53 54 133 68 178 19 65
25 75 27 51 2 -17 -4 -56 -13 -87z m880 -194 c70 -134 73 -306 8 -457 l-18
-42 -1 92 c-1 117 -30 204 -108 327 -51 80 -55 91 -46 121 5 18 12 66 16 107
l7 74 59 -88 c33 -48 70 -109 83 -134z m-88 -279 c33 -96 37 -234 9 -292 -51
-107 -258 -232 -411 -251 l-30 -3 40 -18 c81 -37 242 8 328 92 41 40 42 26 1
-38 -59 -93 -166 -166 -337 -230 -127 -47 -191 -89 -242 -158 -56 -75 -78
-144 -79 -242 0 -67 4 -95 22 -135 l23 -51 -25 -54 c-19 -43 -25 -49 -25 -30
-1 14 -10 51 -21 83 -36 103 -34 251 5 372 4 14 2 12 -9 -5 -20 -32 -20 -13 0
64 22 86 15 354 -15 530 -12 70 -20 130 -18 132 7 8 47 -113 67 -203 23 -104
26 -258 6 -350 -7 -35 -10 -60 -5 -57 5 3 9 10 9 15 0 30 75 163 125 222 l57
67 34 -30 c48 -41 63 -38 17 4 l-37 33 55 58 c30 32 86 79 124 105 136 92 192
176 202 303 3 41 14 91 25 115 12 24 23 64 26 88 l5 44 24 -52 c14 -29 36 -87
50 -128z m-141 66 c-34 -81 -100 -161 -225 -271 -62 -55 -17 8 79 110 49 52
104 122 122 154 35 63 49 68 24 7z m-406 -609 c0 -2 -17 -19 -37 -38 l-38 -34
34 38 c33 34 41 42 41 34z m415 -96 c-29 -26 -32 -37 -44 -137 -15 -122 -38
-194 -88 -273 -45 -70 -82 -103 -171 -152 -40 -22 -92 -57 -114 -77 -120 -108
-171 -292 -110 -396 11 -18 27 -46 37 -62 15 -26 14 -26 -15 6 -72 80 -95 158
-74 256 25 124 115 253 266 387 141 126 196 204 213 302 6 39 6 38 -23 -20
-33 -68 -77 -120 -207 -250 -50 -50 -110 -119 -134 -155 l-43 -65 6 61 c11
124 64 225 191 367 64 73 92 95 169 136 50 28 106 61 125 75 46 34 53 33 16
-3z m235 -140 c25 -104 -9 -209 -92 -287 -104 -99 -316 -254 -347 -254 -8 0
12 17 45 39 103 68 116 89 134 223 21 161 24 169 99 230 37 31 81 76 97 101
28 43 30 44 40 23 6 -11 17 -45 24 -75z m-318 -288 c-5 -44 -17 -96 -27 -117
-34 -72 -143 -137 -254 -152 -30 -4 -51 -3 -51 3 0 17 65 71 142 117 88 54
118 85 161 173 17 34 32 61 34 59 2 -2 -1 -39 -5 -83z m68 -265 c25 -55 26
-134 2 -173 -11 -16 -37 -40 -60 -53 l-41 -23 14 34 c13 31 26 100 40 210 3
26 11 47 16 47 6 0 19 -19 29 -42z m-80 -28 c0 -87 -60 -221 -124 -276 l-41
-35 -3 29 c-2 22 10 50 46 105 28 42 55 99 62 127 11 44 29 69 53 70 4 0 7 -9
7 -20z m-95 -96 c-15 -30 -40 -65 -57 -77 -42 -31 -58 -67 -58 -133 l0 -58
-29 28 c-38 36 -78 119 -91 185 -17 91 -20 87 68 94 44 3 103 14 133 24 67 22
71 14 34 -63z"/>
<path d="M2665 4765 c45 -13 105 -33 135 -45 30 -12 50 -16 44 -10 -16 16
-204 80 -234 79 -14 0 11 -11 55 -24z"/>
<path d="M2350 4637 c7 -8 250 -49 263 -44 19 6 -117 36 -194 43 -41 4 -72 4
-69 1z"/>
<path d="M2640 4495 c0 -13 168 -85 210 -90 37 -5 29 -1 -40 23 -47 16 -104
38 -127 51 -24 12 -43 19 -43 16z"/>
<path d="M1585 4443 c-48 -12 -28 -18 56 -18 79 0 87 1 62 12 -28 12 -81 15
-118 6z"/>
<path d="M1605 4270 c10 -11 20 -20 23 -20 3 0 -3 9 -13 20 -10 11 -20 20 -23
20 -3 0 3 -9 13 -20z"/>
<path d="M3180 4265 l-55 -13 85 -1 c125 -2 223 -17 291 -45 72 -29 61 -8 -15
28 -97 45 -199 56 -306 31z"/>
<path d="M2208 4062 c99 -92 243 -150 392 -157 l85 -4 -80 9 c-144 16 -305 81
-403 163 -42 34 -41 33 6 -11z"/>
<path d="M3340 4057 c-47 -18 -143 -67 -215 -109 -71 -41 -167 -94 -213 -117
-268 -134 -535 -154 -749 -56 -29 13 -53 22 -53 19 0 -9 144 -71 193 -83 27
-6 96 -16 154 -22 136 -13 259 1 378 41 101 34 151 63 345 198 131 91 209 137
260 153 20 6 21 7 5 8 -11 0 -58 -14 -105 -32z"/>
<path d="M2860 3720 c-112 -59 -287 -83 -429 -61 -89 14 -105 8 -24 -10 86
-19 265 -17 338 5 70 21 146 58 164 80 17 20 18 20 -49 -14z"/>
<path d="M1672 3621 c-23 -11 -74 -51 -113 -89 -55 -54 -70 -75 -67 -93 6 -46
36 -34 122 49 103 98 125 107 265 99 l106 -6 -70 25 c-99 35 -188 41 -243 15z"/>
<path d="M3048 3553 c7 -3 16 -2 19 1 4 3 -2 6 -13 5 -11 0 -14 -3 -6 -6z"/>
<path d="M1730 3451 c-46 -10 -77 -30 -92 -62 -13 -27 -17 -29 -44 -29 -9 0
-12 -5 -8 -12 5 -8 2 -9 -10 -5 -30 12 -6 -12 32 -32 30 -16 34 -21 20 -26
-10 -4 -18 -12 -18 -17 0 -6 6 -8 13 -5 6 2 23 8 37 12 22 7 23 6 12 -7 -11
-13 -8 -17 20 -22 38 -6 101 6 125 26 30 24 168 162 153 153 -8 -5 -71 -13
-140 -17 -69 -3 -135 -10 -147 -14 -15 -4 -23 -2 -23 5 0 22 68 41 146 41 43
0 75 2 73 4 -9 8 -117 13 -149 7z m95 -130 c-3 -6 -11 -11 -17 -11 -6 0 -6 6
2 15 14 17 26 13 15 -4z m-40 -12 c0 -21 -50 -35 -69 -19 -9 7 -16 16 -16 21
0 13 34 11 48 -3 9 -9 12 -8 12 6 0 10 6 16 13 14 6 -3 12 -11 12 -19z"/>
<path d="M1440 2810 c-21 -13 -12 -17 55 -24 l60 -7 -24 21 c-25 21 -66 26
-91 10z"/>
<path d="M3735 2838 c2 -57 12 -111 28 -157 23 -66 105 -199 163 -266 33 -38
23 -19 -36 70 -91 136 -120 208 -146 360 l-14 80 5 -87z"/>
<path d="M4017 2350 c3 -47 7 -87 9 -89 7 -8 3 94 -6 134 -6 29 -7 16 -3 -45z"/>
<path d="M1593 718 c-53 -69 -100 -118 -143 -150 -116 -85 -172 -140 -199
-198 -23 -48 -26 -68 -26 -160 0 -58 6 -129 13 -158 12 -45 17 -52 38 -52 29
0 29 -1 3 80 -12 41 -20 94 -21 143 0 112 30 171 120 234 119 83 156 125 261
296 22 37 39 67 36 67 -2 0 -39 -46 -82 -102z"/>
<path d="M1161 124 c0 -11 3 -14 6 -6 3 7 2 16 -1 19 -3 4 -6 -2 -5 -13z"/>
</g>
</svg>